Hanif_Medium_5_0_grf.mot
version=1
nRows=63
nColumns=19
inDegrees=yes
endheader
time	right_ground_force_vx	right_ground_force_vy	right_ground_force_vz	right_ground_force_px	right_ground_force_py	right_ground_force_pz	right_ground_torque_x	right_ground_torque_y	right_ground_torque_z	left_ground_force_vx	left_ground_force_vy	left_ground_force_vz	left_ground_force_px	left_ground_force_py	left_ground_force_pz	left_ground_torque_x	left_ground_torque_y	left_ground_torque_z
2.700000	-6.065990	276.158000	49.157400	0.249418	0.000000	-1.412380	-25.832300	-4.046870	13.460200	0.954400	285.614000	-57.046500	0.238795	0.000000	-0.981192	22.323200	-0.696318	11.646500
2.705000	-5.529530	277.122000	49.848800	0.249297	0.000000	-1.412680	-25.842500	-3.888870	13.496500	1.299980	285.801000	-57.107600	0.238135	0.000000	-0.981206	22.338700	-0.713939	11.456600
2.710000	-6.082610	278.308000	49.984300	0.249771	0.000000	-1.412610	-25.971500	-4.002440	13.681700	1.205950	286.330000	-57.240400	0.237920	0.000000	-0.980907	22.295100	-0.749129	11.422600
2.715000	-5.826850	279.227000	49.852800	0.248626	0.000000	-1.412920	-25.969500	-3.997150	13.393600	2.168990	285.110000	-57.709500	0.237242	0.000000	-0.981189	22.271300	-0.810369	11.182900
2.720000	-5.816890	279.072000	50.561700	0.248990	0.000000	-1.412850	-25.976900	-3.923050	13.507800	2.544980	287.780000	-58.136900	0.236013	0.000000	-0.979936	22.116000	-0.876284	10.924300
2.725000	-5.862630	278.185000	50.706200	0.248522	0.000000	-1.412510	-25.988300	-3.924450	13.331200	2.562820	286.141000	-57.826600	0.236245	0.000000	-0.980380	22.115900	-0.962138	10.949100
2.730000	-5.909290	280.891000	50.556700	0.247517	0.000000	-1.412640	-26.204500	-3.860930	13.183800	3.199420	286.126000	-58.308900	0.235321	0.000000	-0.980445	22.128000	-0.964002	10.671800
2.735000	-5.747430	282.887000	50.675600	0.247479	0.000000	-1.413630	-26.111300	-3.866320	13.264600	3.382530	285.202000	-58.739900	0.234639	0.000000	-0.980620	22.104500	-1.010120	10.452100
2.740000	-5.712950	280.176000	50.614300	0.248096	0.000000	-1.412100	-26.288100	-3.976480	13.293500	3.460050	285.215000	-58.510900	0.233706	0.000000	-0.979178	21.692700	-1.117740	10.193400
2.745000	-6.251900	282.728000	51.190500	0.248359	0.000000	-1.412810	-26.330600	-3.869730	13.525500	3.908490	286.260000	-58.593700	0.233443	0.000000	-0.979743	21.930000	-1.157100	10.149900
2.750000	-6.078040	282.196000	51.638700	0.247643	0.000000	-1.413220	-26.162400	-3.897170	13.284900	3.526260	286.599000	-57.968700	0.232567	0.000000	-0.979119	21.780900	-1.203260	9.904630
2.755000	-6.675970	283.868000	51.027700	0.246739	0.000000	-1.414130	-26.058600	-3.859360	13.112900	3.423210	284.442000	-57.721000	0.232303	0.000000	-0.979819	21.816000	-1.271230	9.771380
2.760000	-6.898960	285.348000	51.409500	0.246716	0.000000	-1.413890	-26.264700	-3.841650	13.185400	3.275580	284.381000	-57.189500	0.231509	0.000000	-0.979332	21.674800	-1.282810	9.530550
2.765000	-6.354050	284.885000	51.493300	0.246913	0.000000	-1.415020	-25.901000	-3.854410	13.209300	3.411310	283.954000	-57.110600	0.230781	0.000000	-0.978754	21.475500	-1.418460	9.327380
2.770000	-6.118510	283.849000	51.610800	0.246123	0.000000	-1.413720	-26.174400	-3.803890	12.935800	3.683530	282.286000	-57.349600	0.230116	0.000000	-0.979019	21.422600	-1.357880	9.071150
2.775000	-5.641020	285.989000	51.649400	0.245813	0.000000	-1.413430	-26.458500	-3.731490	12.949700	4.062730	283.773000	-57.269000	0.229336	0.000000	-0.977864	21.203200	-1.504850	8.906260
2.780000	-5.264820	284.842000	52.114200	0.246379	0.000000	-1.414790	-25.964300	-3.713490	13.061500	3.939110	281.066000	-57.170800	0.229263	0.000000	-0.978911	21.295300	-1.526060	8.814720
2.785000	-5.031610	285.422000	52.407600	0.246000	0.000000	-1.414360	-26.143000	-3.674710	12.981900	4.491320	280.565000	-56.809800	0.228695	0.000000	-0.977464	20.846700	-1.532570	8.623420
2.790000	-5.294500	287.116000	51.804200	0.245255	0.000000	-1.414630	-26.217100	-3.716760	12.833100	4.973310	280.177000	-56.891700	0.228272	0.000000	-0.978438	21.085100	-1.625660	8.501790
2.795000	-4.990040	287.539000	51.765700	0.245120	0.000000	-1.413740	-26.512500	-3.675720	12.815300	4.632110	279.668000	-56.379700	0.227839	0.000000	-0.978309	21.014100	-1.638530	8.362110
2.800000	-5.270860	288.477000	51.569700	0.244753	0.000000	-1.414600	-26.351500	-3.631170	12.759700	5.096950	277.461000	-56.182200	0.228261	0.000000	-0.978698	20.950100	-1.686450	8.426250
2.805000	-4.897920	288.319000	51.884500	0.245404	0.000000	-1.414430	-26.387700	-3.656820	12.937300	4.688690	277.166000	-55.421600	0.227533	0.000000	-0.979271	21.092200	-1.642630	8.193290
2.810000	-4.812760	290.431000	52.185300	0.244209	0.000000	-1.415170	-26.363200	-3.662890	12.674600	4.403080	276.253000	-55.469000	0.227093	0.000000	-0.978125	20.707800	-1.686330	8.058520
2.815000	-5.055690	290.450000	52.165500	0.245013	0.000000	-1.415290	-26.334100	-3.529680	12.944300	4.050960	276.838000	-55.162100	0.226865	0.000000	-0.978679	20.908900	-1.694900	8.009160
2.820000	-4.981550	290.609000	52.596000	0.244634	0.000000	-1.415530	-26.279900	-3.501270	12.843700	4.453900	276.672000	-55.295800	0.226421	0.000000	-0.977780	20.641800	-1.831420	7.901370
2.825000	-5.420920	291.626000	52.813000	0.243767	0.000000	-1.415260	-26.446000	-3.616310	12.616200	3.716670	273.808000	-55.073700	0.226469	0.000000	-0.978928	20.750400	-1.723150	7.830360
2.830000	-5.171160	292.373000	53.133300	0.243752	0.000000	-1.415500	-26.446500	-3.568140	12.651100	3.692790	274.995000	-55.217200	0.226241	0.000000	-0.978282	20.662100	-1.803710	7.813320
2.835000	-5.264030	291.953000	53.382500	0.244229	0.000000	-1.415280	-26.471300	-3.660000	12.762500	4.142170	274.935000	-55.107900	0.225673	0.000000	-0.977869	20.542500	-1.653920	7.611280
2.840000	-5.315250	293.416000	53.689600	0.243665	0.000000	-1.416080	-26.368800	-3.727160	12.646500	4.128360	274.159000	-54.965000	0.226034	0.000000	-0.978278	20.595400	-1.716090	7.706230
2.845000	-4.589020	293.635000	53.898300	0.244006	0.000000	-1.415310	-26.615200	-3.662150	12.761200	4.055580	273.690000	-55.258300	0.225895	0.000000	-0.978196	20.535900	-1.866420	7.691410
2.850000	-4.649730	294.220000	54.132500	0.243666	0.000000	-1.415300	-26.673400	-3.610750	12.695700	4.550220	273.006000	-55.172900	0.225789	0.000000	-0.978784	20.642100	-1.765040	7.615110
2.855000	-4.953940	294.453000	54.309100	0.244121	0.000000	-1.415300	-26.695400	-3.601730	12.852100	4.755100	272.658000	-55.569900	0.225563	0.000000	-0.978652	20.578100	-1.759260	7.544640
2.860000	-5.017800	295.134000	54.006000	0.243956	0.000000	-1.415560	-26.675400	-3.714500	12.810600	4.563890	273.234000	-55.282700	0.225360	0.000000	-0.977842	20.401600	-1.802870	7.508540
2.865000	-4.735030	295.770000	54.628200	0.243805	0.000000	-1.414870	-26.939700	-3.656620	12.802600	4.774700	272.924000	-55.149000	0.225143	0.000000	-0.978418	20.533700	-1.823160	7.438050
2.870000	-4.599500	296.410000	54.578500	0.243864	0.000000	-1.415030	-26.951700	-3.608420	12.855300	4.217070	271.741000	-54.819100	0.225004	0.000000	-0.978571	20.490800	-1.847830	7.379680
2.875000	-5.022160	296.992000	54.352300	0.243230	0.000000	-1.415070	-26.991400	-3.665700	12.681700	4.793090	273.255000	-54.827000	0.225152	0.000000	-0.978036	20.454500	-1.802240	7.439020
2.880000	-5.119690	298.545000	54.687400	0.244138	0.000000	-1.416030	-26.847000	-3.702960	13.025500	4.334470	271.647000	-54.352400	0.225343	0.000000	-0.978502	20.465100	-1.765470	7.447850
2.885000	-5.166750	298.019000	54.647100	0.244332	0.000000	-1.415840	-26.857600	-3.618310	13.077900	4.404100	269.806000	-54.123100	0.225646	0.000000	-0.978567	20.342900	-1.729170	7.477920
2.890000	-5.040100	297.570000	55.077900	0.244634	0.000000	-1.415410	-26.941800	-3.786680	13.120300	3.453820	271.012000	-54.071200	0.224567	0.000000	-0.977834	20.244200	-1.805960	7.231720
2.895000	-5.267870	299.818000	55.205500	0.244543	0.000000	-1.415590	-27.092900	-3.726800	13.209000	3.603550	269.294000	-53.644200	0.225285	0.000000	-0.978636	20.330600	-1.737820	7.371190
2.900000	-5.314430	299.878000	55.052000	0.244117	0.000000	-1.415530	-27.117000	-3.663520	13.091300	3.151160	269.320000	-53.553300	0.225360	0.000000	-0.978125	20.198700	-1.788600	7.408540
2.905000	-5.638420	298.358000	54.925900	0.244747	0.000000	-1.414180	-27.380000	-3.724820	13.212700	3.334750	268.806000	-53.600100	0.224481	0.000000	-0.979596	20.554600	-1.746570	7.139550
2.910000	-5.707690	298.353000	54.490900	0.244964	0.000000	-1.415350	-27.031700	-3.707840	13.279800	2.987480	266.706000	-53.173800	0.225130	0.000000	-0.977323	19.790100	-1.776700	7.278570
2.915000	-6.470220	297.846000	54.539300	0.244523	0.000000	-1.415250	-27.014900	-3.679120	13.139500	2.965530	267.546000	-52.927700	0.223618	0.000000	-0.977787	19.977800	-1.785800	6.875610
2.920000	-6.000080	295.779000	54.486000	0.244925	0.000000	-1.414570	-27.026500	-3.813240	13.137400	3.203460	265.371000	-52.569700	0.223974	0.000000	-0.978209	19.924900	-1.743320	6.909240
2.925000	-6.410870	295.606000	53.551700	0.245565	0.000000	-1.414050	-27.163100	-3.799840	13.329800	3.409490	262.252000	-52.267600	0.224140	0.000000	-0.978178	19.679100	-1.813790	6.892590
2.930000	-7.043600	296.933000	53.857300	0.244787	0.000000	-1.414600	-27.123800	-3.724350	13.177400	3.301530	264.993000	-52.498100	0.223706	0.000000	-0.978196	19.891800	-1.775980	6.831230
2.935000	-6.790310	294.927000	53.583900	0.244809	0.000000	-1.414280	-27.033800	-3.799170	13.074600	3.046220	262.387000	-52.271500	0.223234	0.000000	-0.977844	19.604600	-1.897030	6.670830
2.940000	-6.768210	296.216000	53.848900	0.245172	0.000000	-1.414800	-26.996600	-3.888810	13.228200	3.680280	262.534000	-52.113500	0.222794	0.000000	-0.977861	19.614800	-1.847730	6.532190
2.945000	-7.206070	294.941000	53.837000	0.244984	0.000000	-1.413840	-27.163000	-3.818170	13.134000	3.681720	262.560000	-51.569200	0.223219	0.000000	-0.977456	19.509900	-1.882410	6.647550
2.950000	-6.852540	296.074000	53.557700	0.245109	0.000000	-1.414570	-27.050700	-3.813380	13.216100	3.056770	259.982000	-51.236100	0.223141	0.000000	-0.977340	19.293800	-1.867160	6.573120
2.955000	-7.321510	296.459000	53.711000	0.245346	0.000000	-1.414540	-27.096800	-3.826120	13.312500	2.742010	260.821000	-51.676000	0.223016	0.000000	-0.977252	19.336400	-1.870260	6.568890
2.960000	-7.428420	297.450000	53.472700	0.245100	0.000000	-1.415030	-27.039100	-3.825720	13.282300	2.648880	258.143000	-51.081600	0.222801	0.000000	-0.978569	19.478300	-1.883970	6.449560
2.965000	-7.428450	297.391000	53.454900	0.244875	0.000000	-1.414710	-27.130900	-3.767950	13.221300	2.823740	259.927000	-50.925100	0.222522	0.000000	-0.978130	19.497400	-1.908960	6.411360
2.970000	-7.584180	296.533000	53.510200	0.245323	0.000000	-1.414870	-27.005200	-3.841280	13.309000	2.675490	259.193000	-50.862500	0.222362	0.000000	-0.978531	19.548200	-1.872020	6.346930
2.975000	-7.729140	295.399000	52.821800	0.245449	0.000000	-1.413930	-27.178800	-3.773650	13.307500	2.953440	259.250000	-50.896700	0.222839	0.000000	-0.978672	19.585500	-1.898730	6.478080
2.980000	-7.736710	295.516000	52.203300	0.245389	0.000000	-1.414540	-27.009700	-3.819720	13.281900	3.220920	259.866000	-51.135800	0.222053	0.000000	-0.978054	19.468900	-1.953020	6.289460
2.985000	-7.966450	294.944000	52.039700	0.244811	0.000000	-1.413760	-27.188400	-3.722590	13.101100	3.367490	258.779000	-50.448500	0.221827	0.000000	-0.978372	19.468300	-1.959980	6.195590
2.990000	-7.566490	293.704000	52.042000	0.245396	0.000000	-1.413480	-27.156100	-3.750500	13.211200	2.679500	256.507000	-50.461500	0.221586	0.000000	-0.977669	19.123400	-1.956260	6.096620
2.995000	-7.763300	293.523000	51.382600	0.245635	0.000000	-1.413860	-27.026800	-3.727640	13.277900	2.477300	256.164000	-49.854400	0.221240	0.000000	-0.979214	19.495600	-1.984500	5.996380
3.000000	-7.736370	292.590000	51.092900	0.245544	0.000000	-1.414100	-26.871900	-3.726330	13.205500	2.281800	255.271000	-48.485300	0.221230	0.000000	-0.977998	19.119700	-1.961330	5.954840
3.005000	-8.291920	293.333000	50.881400	0.245309	0.000000	-1.413820	-27.022100	-3.694980	13.182100	1.464570	253.328000	-48.172600	0.221239	0.000000	-0.978769	19.177700	-2.003230	5.934720
3.010000	-7.576380	292.110000	50.461100	0.245688	0.000000	-1.412650	-27.250300	-3.688550	13.229300	1.059690	251.311000	-47.395800	0.220468	0.000000	-0.978841	19.047600	-1.987670	5.686400
